<?xml version="1.0" standalone="no"?>
<!DOCTYPE svg PUBLIC "-//W3C//DTD SVG 20010904//EN"
 "http://www.w3.org/TR/2001/REC-SVG-20010904/DTD/svg10.dtd">
<svg version="1.0" xmlns="http://www.w3.org/2000/svg"
 width="26.000000pt" height="26.000000pt" viewBox="0 0 26.000000 26.000000"
 preserveAspectRatio="xMidYMid meet">
<metadata>
Created by potrace 1.10, written by Peter Selinger 2001-2011
</metadata>
<g transform="translate(0.000000,26.000000) scale(0.100000,-0.100000)"
fill="#000000" stroke="none">
<path d="M30 254 c0 -4 7 -16 17 -26 14 -16 15 -18 0 -18 -9 0 -19 5 -22 10
-13 21 -26 9 -23 -22 2 -26 10 -37 35 -49 62 -31 67 -39 41 -67 -13 -13 -33
-28 -46 -33 -23 -9 -39 -35 -29 -46 10 -10 57 7 57 20 0 7 13 25 28 40 l28 27
44 -45 c34 -34 51 -45 70 -43 42 5 38 46 -8 91 -39 38 -40 38 -54 18 -15 -20
-15 -20 -43 9 -16 17 -25 30 -21 30 4 0 16 -10 26 -22 l19 -23 55 55 c57 55
69 86 40 97 -11 4 -31 -10 -62 -40 l-46 -47 -21 43 c-17 35 -25 43 -52 45 -18
2 -33 0 -33 -4z m170 -69 c-24 -25 -46 -45 -49 -45 -3 0 15 20 39 45 24 25 46
45 49 45 3 0 -15 -20 -39 -45z m-107 -16 c-4 -4 -18 -6 -30 -3 l-22 6 22 18
c19 16 23 16 31 3 4 -8 4 -19 -1 -24z m111 -111 c-3 -5 -12 -4 -20 3 -7 6 -11
15 -8 21 3 5 12 4 20 -3 7 -6 11 -15 8 -21z m33 -24 c-3 -3 -12 -4 -19 -1 -8
3 -5 6 6 6 11 1 17 -2 13 -5z"/>
</g>
</svg>
