<?xml version="1.0" standalone="no"?>
<!DOCTYPE svg PUBLIC "-//W3C//DTD SVG 20010904//EN"
 "http://www.w3.org/TR/2001/REC-SVG-20010904/DTD/svg10.dtd">
<svg version="1.0" xmlns="http://www.w3.org/2000/svg"
 width="26.000000pt" height="26.000000pt" viewBox="0 0 26.000000 26.000000"
 preserveAspectRatio="xMidYMid meet">
<metadata>
Created by potrace 1.10, written by Peter Selinger 2001-2011
</metadata>
<g transform="translate(0.000000,26.000000) scale(0.100000,-0.100000)"
fill="#000000" stroke="none">
<path d="M47 253 c-4 -3 -7 -24 -7 -45 0 -21 -4 -38 -10 -38 -5 0 -10 -24 -10
-53 0 -59 20 -97 51 -97 10 0 19 -4 19 -10 0 -5 18 -10 40 -10 22 0 40 5 40
10 0 6 8 10 18 10 34 0 52 32 52 93 0 31 -4 57 -10 57 -5 0 -10 20 -10 45 0
41 -2 45 -25 45 -22 0 -25 -4 -25 -40 0 -40 0 -40 -40 -40 -31 0 -38 3 -34 15
10 26 -5 65 -25 65 -10 0 -21 -3 -24 -7z m20 -65 c-2 -13 -4 -3 -4 22 0 25 2
35 4 23 2 -13 2 -33 0 -45z m130 0 c-2 -13 -4 -3 -4 22 0 25 2 35 4 23 2 -13
2 -33 0 -45z m23 -83 c0 -54 -16 -65 -94 -65 -67 0 -86 16 -86 71 l0 39 90 0
90 0 0 -45z m-77 -92 c-7 -2 -19 -2 -25 0 -7 3 -2 5 12 5 14 0 19 -2 13 -5z"/>
<path d="M122 128 c-14 -14 -16 -68 -3 -68 11 0 23 27 27 58 3 24 -6 28 -24
10z"/>
</g>
</svg>
